<?xml version="1.0" encoding="utf-8"?>
<!-- Generator: Adobe Illustrator 16.0.0, SVG Export Plug-In . SVG Version: 6.00 Build 0)  -->
<!DOCTYPE svg PUBLIC "-//W3C//DTD SVG 1.1//EN" "http://www.w3.org/Graphics/SVG/1.1/DTD/svg11.dtd">
<svg version="1.1" id="Layer_1" xmlns="http://www.w3.org/2000/svg" xmlns:xlink="http://www.w3.org/1999/xlink" x="0px" y="0px"
	 width="48.025px" height="31.332px" viewBox="0 0 48.025 31.332" enable-background="new 0 0 48.025 31.332" xml:space="preserve">
<g>
	<path fill="#FFFFFF" d="M23.981,9.109c-0.298,0.171-0.596,0.345-0.896,0.516c-0.602,0.34-1.204,0.675-1.802,1.02
		c-0.607,0.351-1.21,0.711-1.813,1.068c-0.297,0.176-0.592,0.354-0.887,0.534c-0.431,0.261-0.858,0.524-1.287,0.788
		c-0.327,0.202-0.653,0.405-0.979,0.609c-0.392,0.247-0.783,0.494-1.173,0.745c-0.502,0.324-1.005,0.649-1.503,0.98
		c-0.55,0.365-1.1,0.731-1.643,1.106c-0.637,0.44-1.267,0.89-1.896,1.335c-1.189,0.841-2.349,1.723-3.486,2.631
		c-0.92,0.734-1.818,1.493-2.685,2.289c-0.866,0.801-1.705,1.625-2.432,2.557c-0.332,0.428-0.64,0.867-0.848,1.368
		c-0.071,0.175-0.128,0.363-0.156,0.552c-0.065,0.434,0.102,0.74,0.508,0.91c0.206,0.086,0.43,0.143,0.652,0.174
		c0.535,0.078,1.072,0.045,1.608-0.019c1.604-0.187,3.146-0.632,4.675-1.128c1.194-0.387,2.365-0.834,3.528-1.303
		c0.183-0.072,0.365-0.148,0.558-0.227c0.055,0.059,0.107,0.114,0.17,0.182c-0.039,0.022-0.065,0.043-0.095,0.056
		c-1.912,0.784-3.841,1.521-5.826,2.104c-0.831,0.244-1.669,0.461-2.522,0.609c-0.625,0.107-1.255,0.182-1.893,0.157
		c-0.29-0.011-0.575-0.05-0.854-0.134c-0.208-0.064-0.399-0.157-0.568-0.297c-0.278-0.23-0.416-0.529-0.436-0.888
		c-0.02-0.348,0.066-0.674,0.193-0.991c0.234-0.59,0.58-1.113,0.958-1.619c0.688-0.918,1.476-1.748,2.298-2.545
		c1.493-1.451,3.099-2.771,4.747-4.041c1.962-1.512,3.985-2.936,6.05-4.302c2.73-1.809,5.533-3.498,8.396-5.086
		c0.117-0.065,0.235-0.13,0.378-0.209c-0.137-0.111-0.27-0.18-0.401-0.249c-0.051-0.026-0.104-0.045-0.152-0.072
		c-0.438-0.236-0.874-0.476-1.313-0.71c-0.43-0.229-0.859-0.454-1.291-0.677c-0.603-0.312-1.205-0.622-1.811-0.929
		c-0.499-0.253-0.998-0.505-1.5-0.751c-0.624-0.305-1.249-0.608-1.877-0.905c-0.674-0.319-1.35-0.631-2.026-0.945
		c-1.379-0.641-2.78-1.228-4.205-1.76c-1.241-0.467-2.504-0.886-3.8-1.193C4.075,0.284,3.497,0.175,2.913,0.103
		C2.468,0.046,2.02,0.039,1.574,0.065C1.258,0.084,0.947,0.144,0.658,0.291c-0.479,0.243-0.684,0.647-0.59,1.177
		C0.152,1.938,0.355,2.36,0.606,2.76c0.506,0.805,1.128,1.516,1.789,2.195c1.191,1.224,2.494,2.322,3.84,3.368
		C7.016,8.93,7.82,9.506,8.615,10.095c0.104,0.078,0.108,0.085,0.071,0.211c-0.035,0.118-0.074,0.234-0.119,0.378
		c-0.066-0.048-0.116-0.081-0.163-0.119C7.492,9.804,6.569,9.053,5.668,8.277c-1.062-0.913-2.08-1.874-3.043-2.89
		c-0.706-0.745-1.383-1.514-1.942-2.38c-0.222-0.343-0.417-0.7-0.553-1.088C0.053,1.693,0.003,1.462,0.006,1.221
		c0.006-0.418,0.193-0.725,0.552-0.93c0.307-0.175,0.646-0.248,0.991-0.272c0.777-0.056,1.549,0.017,2.316,0.149
		C5.536,0.457,7.161,0.926,8.77,1.452c1.917,0.626,3.8,1.341,5.66,2.119c2.306,0.964,4.564,2.026,6.779,3.181
		c0.839,0.437,1.669,0.889,2.501,1.339c0.102,0.055,0.178,0.057,0.28,0.001c3.131-1.69,6.333-3.232,9.633-4.565
		c2.243-0.906,4.515-1.729,6.846-2.378c0.955-0.266,1.917-0.5,2.898-0.649c0.678-0.104,1.358-0.185,2.047-0.111
		c0.245,0.026,0.495,0.071,0.728,0.15c0.652,0.222,0.918,0.71,0.782,1.385c-0.065,0.326-0.195,0.626-0.351,0.917
		c-0.3,0.563-0.677,1.073-1.078,1.564c-0.832,1.014-1.758,1.939-2.713,2.834c-1.097,1.026-2.234,2.005-3.401,2.951
		c-0.043,0.035-0.088,0.068-0.15,0.116c-0.051-0.157-0.099-0.3-0.146-0.452c0.188-0.142,0.368-0.278,0.549-0.412
		c1.121-0.832,2.217-1.694,3.268-2.614c0.86-0.754,1.692-1.539,2.441-2.407c0.493-0.571,0.953-1.165,1.282-1.851
		c0.146-0.307,0.261-0.625,0.264-0.974c0.002-0.407-0.18-0.702-0.537-0.893c-0.248-0.132-0.519-0.188-0.793-0.227
		c-0.452-0.063-0.904-0.027-1.354,0.019c-1.093,0.111-2.149,0.384-3.195,0.698c-1.158,0.348-2.296,0.758-3.416,1.216
		c-0.784,0.32-1.563,0.653-2.338,0.992c-0.605,0.264-1.205,0.54-1.803,0.819c-0.49,0.229-0.976,0.471-1.462,0.708
		c-0.482,0.234-0.966,0.467-1.445,0.705c-0.269,0.132-0.53,0.276-0.798,0.412c-0.297,0.151-0.596,0.299-0.893,0.45
		c-0.136,0.069-0.271,0.139-0.404,0.211c-0.351,0.186-0.697,0.373-1.048,0.56c-0.531,0.285-1.064,0.571-1.598,0.855
		c-0.279,0.148-0.56,0.293-0.84,0.441c-0.053,0.028-0.104,0.062-0.18,0.108c0.067,0.047,0.11,0.08,0.157,0.106
		c1.54,0.879,3.058,1.795,4.556,2.745c1.704,1.079,3.381,2.198,5.037,3.35c1.58,1.1,3.143,2.227,4.676,3.393
		c1.628,1.239,3.229,2.509,4.746,3.883c1,0.906,1.967,1.847,2.813,2.899c0.306,0.382,0.589,0.777,0.824,1.205
		c0.185,0.334,0.344,0.677,0.405,1.058c0.114,0.71-0.153,1.218-0.786,1.508c-0.325,0.147-0.671,0.213-1.021,0.233
		c-0.841,0.053-1.674-0.032-2.501-0.182c-1.854-0.336-3.648-0.891-5.418-1.527c-0.914-0.329-1.818-0.69-2.729-1.039
		c-0.058-0.021-0.111-0.051-0.189-0.084c0.104-0.113,0.195-0.211,0.286-0.309c0.088-0.096,0.176-0.191,0.274-0.298
		c0.189,0.077,0.377,0.154,0.564,0.229c0.703,0.277,1.405,0.564,2.115,0.83c0.726,0.272,1.456,0.531,2.189,0.781
		c0.873,0.297,1.761,0.549,2.659,0.76c0.616,0.145,1.24,0.256,1.871,0.313c0.437,0.039,0.872,0.046,1.305-0.032
		c0.148-0.027,0.299-0.07,0.438-0.129c0.419-0.183,0.604-0.541,0.525-0.992c-0.074-0.431-0.253-0.82-0.472-1.193
		c-0.403-0.688-0.898-1.307-1.424-1.901c-0.705-0.799-1.471-1.538-2.256-2.258c-0.822-0.753-1.675-1.472-2.552-2.162
		c-0.791-0.621-1.592-1.229-2.396-1.833c-0.479-0.357-0.977-0.693-1.467-1.037c-0.384-0.27-0.77-0.537-1.156-0.802
		c-0.3-0.203-0.604-0.397-0.906-0.595c-0.384-0.251-0.768-0.502-1.149-0.751c-0.146-0.096-0.294-0.19-0.444-0.282
		c-0.244-0.151-0.491-0.3-0.737-0.45c-0.475-0.288-0.946-0.578-1.421-0.865c-0.349-0.211-0.696-0.421-1.049-0.628
		c-0.906-0.533-1.814-1.068-2.726-1.596c-0.528-0.306-1.063-0.601-1.597-0.899c-0.347-0.194-0.691-0.388-1.039-0.578
		C24.528,9.397,24.258,9.257,23.981,9.109z"/>
</g>
<g>
	<path fill="#FFFFFF" d="M40.525,13.939c0.47,7.323-4.039,14.07-10.96,16.473c-7.173,2.49-15.022-0.213-19.145-6.518
		c-3.855-5.896-3.1-12.82-0.478-17.128c-1.933,3.992-2.29,8.111-0.939,12.344c0.928,2.91,2.594,5.345,4.92,7.323
		c4.75,4.035,11.334,4.917,16.904,2.479c2.966-1.299,5.335-3.315,7.098-6.031C39.688,20.167,40.532,17.175,40.525,13.939z"/>
	<path fill="#FFFFFF" d="M10.632,4.725c-0.021,0.04-0.043,0.08-0.064,0.119c-0.007-0.003-0.014-0.007-0.02-0.011
		c0.021-0.04,0.042-0.079,0.063-0.119C10.617,4.717,10.624,4.721,10.632,4.725z"/>
</g>
</svg>
